<svg width="397" height="108" viewBox="0 0 397 108" fill="none" xmlns="http://www.w3.org/2000/svg">
<path d="M3.64 49.08L9 49.48C12.3067 49.48 16.0933 48.5467 20.36 46.68C16.8933 43.6933 15.16 40.36 15.16 36.68C15.16 32.9467 16.5733 29.7733 19.4 27.16C22.2267 24.5467 25.4267 23.24 29 23.24C32.6267 23.24 35.4533 24.3867 37.48 26.68C39.56 28.92 40.6 31.64 40.6 34.84C40.6 38.04 38.8667 41.4533 35.4 45.08C38.92 45.9333 43.16 46.4133 48.12 46.52C48.92 42.52 49.7733 38.5733 50.68 34.68H49.24C47.4267 34.68 46.04 34.28 45.08 33.48C44.1733 32.6267 43.72 31.5333 43.72 30.2C43.72 27.4267 45.56 26.04 49.24 26.04H70.28C72.0933 26.04 73.4533 26.44 74.36 27.24C75.2667 28.04 75.72 29.0533 75.72 30.28C75.72 31.4533 75.24 32.4933 74.28 33.4C73.3733 34.2533 72.04 34.68 70.28 34.68H62.36C62.1467 35.9067 61.4 38.84 60.12 43.48C58.8933 48.0667 58.0933 51.2133 57.72 52.92C57.3467 54.5733 56.92 56.44 56.44 58.52C56.0133 60.6 55.64 62.28 55.32 63.56C55.0533 64.84 54.7067 66.3867 54.28 68.2C53.8533 69.96 53.4533 71.4 53.08 72.52C52.76 73.64 52.4133 74.7333 52.04 75.8C51.24 77.9867 50.44 79.08 49.64 79.08C48.5733 79.08 47.2667 78.4933 45.72 77.32C44.1733 76.1467 43.4 75.08 43.4 74.12C43.4 71.8267 43.7733 68.4933 44.52 64.12C40.3067 67 35.72 69.5333 30.76 71.72C25.8 73.9067 22.0667 75 19.56 75C17.1067 75 14.9733 74.36 13.16 73.08C11.4 71.8 10.52 70.76 10.52 69.96C10.52 69.1067 10.76 68.5733 11.24 68.36C11.72 68.0933 12.68 67.8267 14.12 67.56C15.6133 67.2933 17.9333 66.68 21.08 65.72C29.2933 63.2133 37.2933 59.48 45.08 54.52C38.4667 54.1467 32.8133 53.0267 28.12 51.16C21.6133 55.3733 15.56 57.48 9.96 57.48C7.72 57.48 5.64 56.7067 3.72 55.16C1.8 53.56 0.84 52.12 0.84 50.84C0.84 50.0933 1.05333 49.6133 1.48 49.4C1.96 49.1867 2.68 49.08 3.64 49.08ZM23.72 35.72C23.72 38.1733 25.08 40.3067 27.8 42.12C30.84 39.4533 32.36 36.9733 32.36 34.68C32.36 32.3867 31.2133 31.24 28.92 31.24C27.4267 31.24 26.1733 31.6667 25.16 32.52C24.2 33.3733 23.72 34.44 23.72 35.72ZM93.4681 26.04C95.2815 26.04 96.6415 26.44 97.5481 27.24C98.4548 28.04 98.9081 29.0533 98.9081 30.28C98.9081 31.4533 98.4281 32.4933 97.4681 33.4C96.5615 34.2533 95.2281 34.68 93.4681 34.68H84.1881C83.3881 42.3067 82.3481 49.2133 81.0681 55.4C79.8415 61.5333 78.9081 65.64 78.2681 67.72C77.6815 69.7467 76.9881 71.6933 76.1881 73.56C75.4415 75.3733 74.6148 76.76 73.7081 77.72C72.8548 78.68 71.9481 79.16 70.9881 79.16C70.0281 79.16 69.2815 78.76 68.7481 77.96C68.2681 77.1067 68.0281 75.8533 68.0281 74.2C68.0281 72.5467 68.9348 67.2133 70.7481 58.2C72.6148 49.1333 73.8415 41.2933 74.4281 34.68H48.9881C47.1748 34.68 45.8148 34.28 44.9081 33.48C43.9481 32.6267 43.4681 31.5333 43.4681 30.2C43.4681 27.4267 45.3081 26.04 48.9881 26.04H52.9081C54.2948 20.4933 57.1215 14.8667 61.3881 9.16C65.7081 3.4 69.8148 0.519995 73.7081 0.519995C77.6548 0.519995 80.5081 2.28 82.2681 5.8C84.0815 9.32 84.9881 13.8 84.9881 19.24C84.9881 20.68 84.9348 22.9467 84.8281 26.04H93.4681ZM75.0681 21.8C75.0681 14.6533 74.4015 11.08 73.0681 11.08C72.1081 11.08 70.4548 12.7333 68.1081 16.04C65.8148 19.3467 63.9215 22.68 62.4281 26.04H74.9881C75.0415 25.1333 75.0681 23.72 75.0681 21.8ZM149.203 49.48L143.123 49.32C138.163 49.32 135.683 50.3067 135.683 52.28C135.683 52.92 135.763 53.48 135.923 53.96C136.35 53.9067 136.963 53.88 137.763 53.88C141.71 53.88 145.043 54.9467 147.763 57.08C150.536 59.2133 151.923 61.8533 151.923 65C151.923 66.92 151.416 68.6267 150.403 70.12C149.443 71.6133 148.19 72.36 146.643 72.36C145.416 72.36 144.803 70.9733 144.803 68.2C144.803 66.4933 144.19 65.1067 142.963 64.04C141.736 62.92 139.87 62.36 137.363 62.36C134.91 62.36 132.856 63.0267 131.203 64.36C129.55 65.6933 128.723 67.4533 128.723 69.64C128.723 71.8267 129.123 73.6667 129.923 75.16C130.723 76.6 131.843 77.72 133.283 78.52C135.63 79.8 138.483 80.76 141.843 81.4C145.256 82.04 146.963 82.8933 146.963 83.96C146.963 85.0267 146.243 85.9067 144.803 86.6C143.363 87.3467 141.496 87.72 139.203 87.72C133.443 87.72 128.643 85.9867 124.803 82.52C120.963 79.1067 119.043 74.7333 119.043 69.4C119.043 66.4667 119.87 63.8 121.523 61.4C123.23 59 125.523 57.1333 128.403 55.8C126.963 53.8267 126.243 51.8 126.243 49.72C126.243 46.8933 127.71 44.8133 130.643 43.48C133.63 42.1467 137.39 41.48 141.923 41.48C144.43 41.48 146.27 41.5333 147.443 41.64C147.23 39.08 146.83 36.76 146.243 34.68H127.523C125.71 34.68 124.323 34.28 123.363 33.48C122.456 32.6267 122.003 31.5333 122.003 30.2C122.003 27.4267 123.843 26.04 127.523 26.04H164.003C165.816 26.04 167.176 26.44 168.083 27.24C168.99 28.04 169.443 29.0533 169.443 30.28C169.443 31.4533 168.963 32.4933 168.003 33.4C167.096 34.2533 165.763 34.68 164.003 34.68H155.523C155.95 36.12 156.163 37.8 156.163 39.72C156.163 41.5867 155.843 43.56 155.203 45.64C154.616 47.6667 153.656 48.8133 152.323 49.08C151.683 49.3467 150.643 49.48 149.203 49.48ZM158.902 26.04H168.022C168.289 21.8267 169.409 17.8267 171.382 14.04C173.409 10.2 176.342 7 180.182 4.44C184.075 1.88 188.475 0.599998 193.382 0.599998C196.795 0.599998 199.889 1.21333 202.662 2.44C205.435 3.66667 207.649 5.21333 209.302 7.08C210.955 8.89333 212.342 10.9467 213.462 13.24C215.382 17.4 216.342 21.2933 216.342 24.92C216.342 28.4933 215.542 30.68 213.942 31.48C212.395 32.28 210.849 31.08 209.302 27.88C208.982 27.24 208.449 25.88 207.702 23.8C206.955 21.72 206.262 20.0933 205.622 18.92C204.982 17.6933 204.102 16.3067 202.982 14.76C200.795 11.72 197.515 10.2 193.142 10.2C190.955 10.2 188.955 10.68 187.142 11.64C185.329 12.5467 183.835 13.7733 182.662 15.32C180.475 18.2 179.035 21.7733 178.342 26.04H190.422C192.235 26.04 193.595 26.44 194.502 27.24C195.409 28.04 195.862 29.0533 195.862 30.28C195.862 31.4533 195.382 32.4933 194.422 33.4C193.515 34.2533 192.182 34.68 190.422 34.68H177.302C176.982 38.1467 176.182 42.7067 174.902 48.36C173.622 54.0133 172.635 58.3867 171.942 61.48C171.302 64.5733 170.795 66.9467 170.422 68.6C170.049 70.2 169.622 71.96 169.142 73.88C168.182 77.4533 167.142 79.24 166.022 79.24C165.062 79.24 163.809 78.44 162.262 76.84C160.769 75.1867 160.022 73.56 160.022 71.96C160.022 71.48 160.235 70.36 160.662 68.6C162.262 61.4 163.195 56.7067 163.462 54.52C164.049 50.3067 165.035 43.6933 166.422 34.68H158.902C157.089 34.68 155.702 34.28 154.742 33.48C153.835 32.6267 153.382 31.5333 153.382 30.2C153.382 27.4267 155.222 26.04 158.902 26.04ZM183.071 26.04H229.471C231.284 26.04 232.644 26.44 233.551 27.24C234.457 28.04 234.911 29.0533 234.911 30.28C234.911 31.4533 234.431 32.4933 233.471 33.4C232.564 34.2533 231.231 34.68 229.471 34.68H219.551C220.297 36.6 220.671 38.6533 220.671 40.84C220.671 46.3867 218.164 51.6667 213.151 56.68C208.191 61.6933 202.457 64.7067 195.951 65.72C197.124 67.32 197.977 68.52 198.511 69.32C199.097 70.12 200.004 71.3733 201.231 73.08C202.457 74.7867 203.497 76.2267 204.351 77.4C205.204 78.5733 206.084 79.8267 206.991 81.16C208.857 83.88 209.791 85.6667 209.791 86.52C209.791 88.3867 208.671 89.32 206.431 89.32C205.524 89.32 204.564 88.8667 203.551 87.96C202.591 87.0533 201.817 86.3067 201.231 85.72C200.697 85.1867 199.951 84.3333 198.991 83.16C198.084 82.04 197.337 81.1333 196.751 80.44C188.164 69.8267 183.231 63.16 181.951 60.44C181.471 59.5867 181.231 58.6 181.231 57.48C181.231 56.36 181.471 55.32 181.951 54.36C182.431 53.4 183.017 52.92 183.711 52.92C184.457 52.92 185.844 53.5067 187.871 54.68C189.951 55.8533 191.391 56.44 192.191 56.44C196.244 56.44 200.324 54.7333 204.431 51.32C208.537 47.9067 210.591 44.1733 210.591 40.12C210.591 39.2133 210.297 38.44 209.711 37.8C209.177 37.1067 208.431 36.76 207.471 36.76C205.444 36.76 203.924 37.6667 202.911 39.48C202.857 39.5333 202.671 39.8533 202.351 40.44C202.084 41.0267 201.871 41.4267 201.711 41.64C201.604 41.8 201.391 42.0933 201.071 42.52C200.537 43.16 199.711 43.48 198.591 43.48C197.524 43.48 196.057 42.7333 194.191 41.24C192.324 39.7467 191.391 38.3067 191.391 36.92C191.391 36.2267 191.524 35.48 191.791 34.68H183.071C181.257 34.68 179.871 34.28 178.911 33.48C178.004 32.6267 177.551 31.5333 177.551 30.2C177.551 27.4267 179.391 26.04 183.071 26.04ZM223.759 56.52V56.28C223.759 54.8933 223.972 53.72 224.399 52.76C224.879 51.8 225.545 51.32 226.399 51.32C227.305 51.32 228.639 51.96 230.399 53.24C232.159 54.52 234.399 55.16 237.119 55.16C239.839 55.16 242.772 53.6133 245.919 50.52C249.119 47.4267 250.719 43.96 250.719 40.12C250.719 39.2133 250.425 38.44 249.839 37.8C249.305 37.1067 248.559 36.76 247.599 36.76C245.572 36.76 244.052 37.6667 243.039 39.48C242.985 39.5333 242.799 39.8533 242.479 40.44C242.212 41.0267 241.999 41.4267 241.839 41.64C241.732 41.8 241.519 42.0933 241.199 42.52C240.665 43.16 239.839 43.48 238.719 43.48C237.652 43.48 236.185 42.7333 234.319 41.24C232.452 39.7467 231.519 38.3067 231.519 36.92C231.519 36.2267 231.652 35.48 231.919 34.68H222.959C221.145 34.68 219.759 34.28 218.799 33.48C217.892 32.6267 217.439 31.5333 217.439 30.2C217.439 27.4267 219.279 26.04 222.959 26.04H317.119C318.932 26.04 320.292 26.44 321.199 27.24C322.105 28.04 322.559 29.0533 322.559 30.28C322.559 31.4533 322.079 32.4933 321.119 33.4C320.212 34.2533 318.879 34.68 317.119 34.68H307.999C307.679 38.1467 306.852 42.76 305.519 48.52C304.239 54.2267 303.305 58.5733 302.719 61.56C302.185 64.4933 301.732 66.84 301.359 68.6C300.985 70.3067 300.532 72.0667 299.999 73.88C299.039 77.4533 297.732 79.24 296.079 79.24C294.905 79.24 293.839 78.76 292.879 77.8C291.919 76.7867 291.439 75.32 291.439 73.4C291.439 72.5467 291.812 69.6133 292.559 64.6C293.359 59.5867 293.972 55.6933 294.399 52.92C292.265 53.4 288.079 54.12 281.839 55.08C279.652 66.9733 275.732 72.92 270.079 72.92C267.199 72.92 264.452 71.4533 261.839 68.52C259.225 65.5333 257.759 62.52 257.439 59.48C253.865 60.0133 250.665 60.3067 247.839 60.36C244.585 62.12 241.332 63.1867 238.079 63.56L239.039 64.84C243.732 70.92 246.079 74.6267 246.079 75.96C246.079 76.8133 245.732 77.56 245.039 78.2C244.345 78.7867 243.545 79.08 242.639 79.08C241.305 79.08 239.092 77.5067 235.999 74.36C232.905 71.2133 230.079 67.8267 227.519 64.2C225.012 60.52 223.759 57.96 223.759 56.52ZM273.839 34.68H259.679C260.425 36.6 260.799 38.6533 260.799 40.84C260.799 44.5733 259.705 48.12 257.519 51.48C259.919 51.0533 262.932 50.3867 266.559 49.48C270.185 48.52 272.452 47.96 273.359 47.8C273.679 43.6933 273.839 39.4267 273.839 35V34.68ZM269.919 64.12C270.932 64.12 271.812 61.64 272.559 56.68C268.452 57.48 266.399 58.36 266.399 59.32C266.399 60.28 266.825 61.32 267.679 62.44C268.532 63.56 269.279 64.12 269.919 64.12ZM283.439 34.68V35.56C283.439 38.76 283.279 42.28 282.959 46.12C284.505 45.96 288.745 45.32 295.679 44.2L297.119 34.68H283.439ZM275.928 97.88C275.928 94.04 278.115 90.2533 282.488 86.52C286.808 82.84 291.048 81 295.208 81C296.488 81 297.821 81.8267 299.208 83.48C300.541 85.1867 301.208 86.6533 301.208 87.88C301.208 88.8933 300.621 89.4 299.448 89.4C299.021 89.4 298.435 89.2133 297.688 88.84C296.888 88.52 296.141 88.36 295.448 88.36C293.848 88.36 291.501 89.5333 288.408 91.88C285.261 94.2267 283.688 96.1733 283.688 97.72C283.688 99.16 285.768 99.88 289.928 99.88C292.168 99.88 294.061 99.6667 295.608 99.24C297.155 98.8667 298.355 98.68 299.208 98.68C300.008 98.68 300.835 99.1067 301.688 99.96C302.488 100.813 302.888 101.667 302.888 102.52C302.888 103.853 301.688 104.947 299.288 105.8C296.888 106.653 293.955 107.08 290.488 107.08C280.781 107.08 275.928 104.013 275.928 97.88ZM312.808 26.04H321.528C321.581 22.8933 322.275 19.8267 323.608 16.84C324.941 13.8 326.781 11.08 329.128 8.67999C331.475 6.22666 334.488 4.28 338.168 2.84C341.848 1.34667 346.141 0.599998 351.048 0.599998C356.008 0.599998 360.701 1.53333 365.128 3.4C369.608 5.21333 373.075 7.50666 375.528 10.28C378.035 13 379.928 15.7467 381.208 18.52C382.488 21.24 383.128 23.88 383.128 26.44C383.128 29 382.461 30.6533 381.128 31.4C379.795 32.0933 378.328 31.08 376.728 28.36C374.701 24.3067 372.915 21.3733 371.368 19.56C369.448 17.3733 367.928 15.9333 366.808 15.24C365.741 14.4933 364.595 13.7733 363.368 13.08C362.141 12.3867 360.888 11.8533 359.608 11.48C356.355 10.6267 353.181 10.2 350.088 10.2C344.915 10.2 340.728 11.7733 337.528 14.92C334.328 18.0667 332.408 21.7733 331.768 26.04H344.328C346.141 26.04 347.501 26.44 348.408 27.24C349.315 28.04 349.768 29.0533 349.768 30.28C349.768 31.4533 349.288 32.4933 348.328 33.4C347.421 34.2533 346.088 34.68 344.328 34.68H331.208C330.888 38.1467 330.088 42.7067 328.808 48.36C327.528 54.0133 326.541 58.3867 325.848 61.48C325.208 64.5733 324.701 66.9467 324.328 68.6C323.955 70.2 323.528 71.96 323.048 73.88C322.088 77.4533 321.048 79.24 319.928 79.24C318.968 79.24 317.715 78.44 316.168 76.84C314.675 75.1867 313.928 73.56 313.928 71.96C313.928 71.48 314.141 70.36 314.568 68.6C316.168 61.4 317.101 56.7067 317.368 54.52C317.688 52.28 318.701 45.6667 320.408 34.68H312.808C310.995 34.68 309.608 34.28 308.648 33.48C307.741 32.6267 307.288 31.5333 307.288 30.2C307.288 27.4267 309.128 26.04 312.808 26.04ZM337.777 26.04H390.977C392.79 26.04 394.15 26.44 395.057 27.24C395.964 28.04 396.417 29.0533 396.417 30.28C396.417 31.4533 395.937 32.4933 394.977 33.4C394.07 34.2533 392.737 34.68 390.977 34.68H382.017C381.804 35.9067 381.11 38.8667 379.937 43.56C378.764 48.2533 377.91 51.72 377.377 53.96C376.897 56.2 376.257 59.7733 375.457 64.68C374.71 69.5333 374.017 73.16 373.377 75.56C372.737 77.9067 372.017 79.08 371.217 79.08C370.15 79.08 368.924 78.4933 367.537 77.32C366.15 76.1467 365.457 75.08 365.457 74.12C365.457 69.48 366.017 63.4267 367.137 55.96C362.87 55.1067 358.87 54.68 355.137 54.68C348.63 54.68 345.377 56.6533 345.377 60.6C345.377 62.68 345.937 64.44 347.057 65.88C348.177 67.2667 349.404 68.28 350.737 68.92C352.07 69.56 353.297 70.4667 354.417 71.64C355.537 72.8133 356.097 74.04 356.097 75.32C356.097 77.8267 354.71 79.08 351.937 79.08C348.524 79.08 344.924 76.8933 341.137 72.52C337.404 68.0933 335.537 63.5067 335.537 58.76C335.537 50.28 341.75 46.04 354.177 46.04C359.084 46.04 363.83 46.6 368.417 47.72C369.004 44.4667 369.884 40.12 371.057 34.68H337.777C335.964 34.68 334.577 34.28 333.617 33.48C332.71 32.6267 332.257 31.5333 332.257 30.2C332.257 27.4267 334.097 26.04 337.777 26.04Z" fill="#443EA3"/>
</svg>
